<svg xmlns="http://www.w3.org/2000/svg" version="1.1" xmlns:xlink="http://www.w3.org/1999/xlink" width="512" height="512" x="0" y="0" viewBox="0 0 68 68" style="enable-background:new 0 0 512 512" xml:space="preserve" class=""><g><path d="M62.187 34.36c-3.318 1.967-7.342 1.383-8.93-1.29-1.597-2.703-.163-6.48 3.165-8.457a8.372 8.372 0 0 1 2.426-.973L50.626 9.766a2.152 2.152 0 0 1 .758-2.94l7.894-4.678a1.068 1.068 0 0 1 1.465.378l1.167 1.966a1.08 1.08 0 0 1-.369 1.475l-5.928 3.512 9.727 16.434c1.598 2.673.195 6.461-3.153 8.448zM61.746 45.122c0 .42-.348.768-.768.768h-1.464v1.465a.767.767 0 1 1-1.536 0V45.89h-1.474a.767.767 0 1 1 0-1.536h1.474V42.88a.767.767 0 1 1 1.536 0v1.474h1.464c.42 0 .768.338.768.768zM20.491 18.459l-4.74 18.503c-.768 3.02-4.444 4.71-8.202 3.747-3.748-.952-6.175-4.208-5.407-7.229.779-3.03 4.465-4.7 8.212-3.737.891.225 1.7.583 2.407 1.024l4.003-15.626a2.133 2.133 0 0 1 2.601-1.536l8.898 2.274c.574.143.922.727.768 1.3l-.563 2.222a1.066 1.066 0 0 1-1.3.768zM37.98 19.575a2.05 2.05 0 0 1 2.048-2.058 2.05 2.05 0 0 1 2.048 2.058 2.039 2.039 0 0 1-2.048 2.038 2.039 2.039 0 0 1-2.048-2.038zM51.968 52.474c.624 3.062-1.967 6.164-5.765 6.922-3.81.778-7.383-1.085-7.997-4.137-.625-3.071 1.955-6.174 5.765-6.942a9.977 9.977 0 0 1 1.535-.184L43.233 36.89l-16.28 3.287 3.778 18.728c.625 3.051-1.956 6.154-5.765 6.922-3.788.767-7.382-1.086-7.997-4.137-.624-3.082 1.966-6.185 5.765-6.942a7.861 7.861 0 0 1 1.536-.185l-3.348-16.567a2.143 2.143 0 0 1 1.679-2.52l22.813-4.617a2.148 2.148 0 0 1 2.53 1.68zM4.487 8.936c0-.43.348-.768.768-.768H6.73V6.704a.76.76 0 0 1 .768-.768c.42 0 .768.338.768.768v1.464H9.73a.767.767 0 1 1 0 1.536H8.266v1.464c0 .43-.348.768-.768.768a.76.76 0 0 1-.768-.768V9.704H5.255a.773.773 0 0 1-.768-.768zM12.105 52.116a2.563 2.563 0 0 1-2.57 2.56 2.552 2.552 0 0 1-2.55-2.56 2.552 2.552 0 0 1 2.55-2.56 2.563 2.563 0 0 1 2.57 2.56z" fill="#000000" opacity="1" data-original="#000000" class=""></path></g></svg>