<svg xmlns="http://www.w3.org/2000/svg" version="1.1" xmlns:xlink="http://www.w3.org/1999/xlink" width="512" height="512" x="0" y="0" viewBox="0 0 512 512" style="enable-background:new 0 0 512 512" xml:space="preserve" class=""><g><circle cx="290.498" cy="216.037" r="45.723" fill="#000000" opacity="1" data-original="#000000" class=""></circle><path d="M478.434 59.129 166.569.666a38.508 38.508 0 0 0-44.943 30.753l-16.172 86.27h-64.8A38.507 38.507 0 0 0 2.147 156.2v317.3A38.507 38.507 0 0 0 40.654 512h317.3a38.507 38.507 0 0 0 38.507-38.507v-28.551l9.321 1.748a38.507 38.507 0 0 0 44.943-30.753l58.464-311.865a38.508 38.508 0 0 0-30.755-44.943zm-451.4 275.457V171.3a28.728 28.728 0 0 1 28.728-28.728h288.855a26.955 26.955 0 0 1 26.955 26.955v244.338l-120.554-113-43.962 26.82-67.282-67.285zm455.235-221.993L437.25 352.744l-40.791-55.665V156.2a38.507 38.507 0 0 0-38.507-38.507H130.774l12.526-66.84a28.729 28.729 0 0 1 33.532-22.943l283.911 53.223a26.954 26.954 0 0 1 21.526 31.46z" fill="#000000" opacity="1" data-original="#000000" class=""></path></g></svg>