<svg xmlns="http://www.w3.org/2000/svg" version="1.1" xmlns:xlink="http://www.w3.org/1999/xlink" width="512" height="512" x="0" y="0" viewBox="0 0 32 32" style="enable-background:new 0 0 512 512" xml:space="preserve" class=""><g><path d="M26 16a7.951 7.951 0 0 1-2.286 5.599 1 1 0 0 1-1.428-1.4 5.999 5.999 0 0 0 0-8.397 1 1 0 0 1 1.428-1.4A7.951 7.951 0 0 1 26 16zm-.316-9.73a1 1 0 0 0-1.368 1.46 11.126 11.126 0 0 1 0 16.541 1 1 0 0 0 1.368 1.459 13.124 13.124 0 0 0 0-19.459zM5 10a3 3 0 0 0-3 3v6a3 3 0 0 0 3 3h3V10zm11.854-5.718L10 9.08v13.841l6.854 4.797A2.013 2.013 0 0 0 20 26.08V5.921a2.013 2.013 0 0 0-3.147-1.639z" fill="#000000" opacity="1" data-original="#000000" class=""></path></g></svg>